<svg fill="none" stroke-linecap="square" stroke-miterlimit="10" viewBox="0 0 85.33333333 85.33333333" xmlns="http://www.w3.org/2000/svg" xmlns:xlink="http://www.w3.org/1999/xlink"><clipPath id="a"><path d="m0 0h85.333336v85.333336h-85.333336z"/></clipPath><g clip-path="url(#a)"><path d="m8 32.031498c0-13.27223 10.759268-24.031498 24.031498-24.031498 6.3735466 0 12.486053 2.5318823 16.992832 7.038662 4.5067787 4.5067806 7.038662 10.619286 7.038662 16.992836 0 13.272228-10.759266 24.031494-24.031494 24.031494-13.27223 0-24.031498-10.759266-24.031498-24.031494z" fill="none"/><path d="m8 32.031498c0-13.27223 10.759268-24.031498 24.031498-24.031498 6.3735466 0 12.486053 2.5318823 16.992832 7.038662 4.5067787 4.5067806 7.038662 10.619286 7.038662 16.992836 0 13.272228-10.759266 24.031494-24.031494 24.031494-13.27223 0-24.031498-10.759266-24.031498-24.031494z" fill-rule="evenodd" stroke="#595959" stroke-linecap="butt" stroke-linejoin="round" stroke-width="12"/><path d="m52.769028 52.769028 25.984253 25.984253" fill="none"/><path d="m52.769028 52.769028 25.984253 25.984253" fill-rule="evenodd" stroke="#595959" stroke-linecap="butt" stroke-linejoin="round" stroke-width="12"/></g></svg>